<?xml version="1.0"?>
<svg xmlns="http://www.w3.org/2000/svg" xmlns:xlink="http://www.w3.org/1999/xlink" xmlns:svgjs="http://svgjs.com/svgjs" version="1.1" width="512" height="512" x="0" y="0" viewBox="0 0 512.172 512.172" style="enable-background:new 0 0 512 512" xml:space="preserve" class=""><g><g xmlns="http://www.w3.org/2000/svg"><path d="m219.843 483.365-28.808-12.94c5.641-6.784 10.459-14.412 14.21-22.81 8.451-18.919 10.708-39.677 6.528-60.03-6.837-33.29-31.403-61.174-64.111-72.772-41.312-14.649-67.451-33.843-79.914-58.678-4.163-9.32-21.096-12.777-27.218.866l-28.48 63.406c-31.558 65.275 1.505 152.316 68.453 179.727.322.138.646.263.971.377 10.89 3.929 22.077 5.798 33.123 5.798 18.145-.001 35.892-5.057 51.268-14.302l41.686 18.724c7.378 3.367 16.429.096 19.829-7.537 3.395-7.556.021-16.434-7.537-19.829zm-82.207-140.277c48.597 17.026 61.819 78.828 24.953 113.948-55.419-30.323-91.109-87.926-93.26-151.412 17.123 14.937 39.757 27.34 68.307 37.464zm-45.724 129.295c-51.548-21.397-76.928-89.24-52.529-139.61l1.875-4.175c8.308 59.241 41.687 112.233 91.349 145.33-13.052 3.524-27.201 3.264-40.695-1.545z" fill="#373b4f" data-original="#000000" style="" class=""/><path d="m354.291 134.584c3.286-8.59 5.281-17.388 6.09-26.173l29.512 11.217c7.744 2.941 16.407-.949 19.351-8.692 2.943-7.744-.948-16.408-8.692-19.351l-42.704-16.232c-6.972-28.005-25.974-52.675-53.659-65.685-.315-.152-.637-.294-.967-.427-32.446-12.992-70.01-12.069-103.059 2.535-33.958 15.004-59.68 42.047-72.402 76.072l-24.728 65.058c-4.221 9.433 4.394 24.231 18.636 19.85 26.375-8.748 58.429-3.836 98 15.016 30.931 14.779 68.17 12.756 96.791-6.125 17.346-11.435 30.428-27.709 37.831-47.063zm-142.004-95.367c25.568-11.298 54.473-12.125 79.376-2.287 12.943 6.141 23.131 15.963 29.87 27.684-58.519-11.712-119.592 2.156-167.357 38.17l1.655-4.354c9.899-26.471 29.948-47.501 56.456-59.213zm87.66 117.384c-19.655 12.958-45.472 14.524-67.376 4.088-27.34-13.026-52.112-20.274-74.776-21.823 46.411-43.36 112.371-58.85 172.994-41.106.193 8.696-1.246 17.549-4.519 26.106-5.146 13.455-14.248 24.775-26.323 32.735z" fill="#373b4f" data-original="#000000" style="" class=""/><path d="m500.151 320.482-28.513-63.479c-3.678-9.73-20.31-13.955-27.219-.868-12.462 24.835-38.602 44.029-79.914 58.678-32.708 11.598-57.273 39.483-64.111 72.773-4.18 20.353-1.923 41.111 6.528 60.03 3.751 8.398 8.568 16.026 14.209 22.811l-28.807 12.939c-7.557 3.395-10.932 12.272-7.537 19.829 3.4 7.634 12.451 10.903 19.829 7.537l41.683-18.723c15.376 9.246 33.123 14.302 51.271 14.301 11.043-.001 22.238-1.87 33.125-5.798.325-.114.648-.239.97-.376 66.92-27.381 100-114.459 68.486-179.654zm-170.37 73.139c4.736-23.062 21.884-42.425 44.75-50.534 28.55-10.124 51.184-22.527 68.306-37.464-2.151 63.485-37.84 121.087-93.258 151.411-16.772-15.722-24.742-40.716-19.798-63.413zm144.988 21.016c-10.092 26.07-29.945 47.094-54.513 57.746-13.275 4.724-27.32 5.15-40.693 1.543 49.66-33.097 83.038-86.088 91.346-145.329l1.909 4.25c11.72 25.719 12.413 54.765 1.951 81.79z" fill="#373b4f" data-original="#000000" style="" class=""/></g></g></svg>
